<?xml version="1.0" encoding="UTF-8"?>
<svg width="359px" height="78px" viewBox="0 0 359 78" version="1.1" xmlns="http://www.w3.org/2000/svg" xmlns:xlink="http://www.w3.org/1999/xlink">
    <!-- Generator: Sketch 51.2 (57519) - http://www.bohemiancoding.com/sketch -->
    <title>authorization_logo</title>
    <desc>Created with Sketch.</desc>
    <defs>
        <polygon id="path-1" points="0.543830095 0.356 71.460885 0.356 71.460885 77.9999 0.543830095 77.9999"></polygon>
        <linearGradient x1="89.7796954%" y1="17.0321009%" x2="-8.54586359%" y2="109.272427%" id="linearGradient-3">
            <stop stop-color="#FFE033" offset="0%"></stop>
            <stop stop-color="#F08512" offset="100%"></stop>
        </linearGradient>
    </defs>
    <g id="Page-1" stroke="none" stroke-width="1" fill="none" fill-rule="evenodd">
        <g id="authorization_logo" transform="translate(0.000000, -1.000000)">
            <path d="M165.5181,66.3817 C161.0961,66.3817 157.6271,64.6207 155.1171,61.0987 C152.6041,57.5777 151.3501,52.2687 151.3501,45.1697 C151.3501,41.9487 151.6631,39.0277 152.2911,36.4067 C152.9181,33.7857 153.8471,31.5617 155.0751,29.7327 C156.3041,27.9037 157.8321,26.4847 159.6621,25.4737 C161.4901,24.4637 163.6061,23.9577 166.0091,23.9577 C167.8651,23.9577 169.3671,24.1627 170.5141,24.5727 C171.6601,24.9827 172.6971,25.4877 173.6261,26.0877 L172.7251,32.1487 C171.8511,31.3617 170.8271,30.6737 169.6531,30.0847 C168.4781,29.4957 167.2371,29.1997 165.9281,29.1997 C163.6341,29.1997 161.7501,30.4897 160.2761,33.0687 C158.8021,35.6487 158.0651,39.5727 158.0651,44.8407 C158.0651,50.0547 158.6801,54.0747 159.9071,56.9007 C161.1361,59.7277 163.0611,61.1407 165.6821,61.1407 C167.2651,61.1407 168.6301,60.8727 169.7761,60.3377 C170.9231,59.8027 171.8781,59.1957 172.6431,58.5197 L174.1171,63.2697 C173.0241,64.1977 171.7961,64.9477 170.4321,65.5217 C169.0661,66.0947 167.4291,66.3817 165.5181,66.3817 Z M132.6771,45.2517 L132.6771,65.8087 L126.2881,65.8087 L126.2881,24.5307 L132.6771,24.5307 L132.6771,43.6137 L142.5861,24.5307 L149.0561,24.5307 L138.8191,43.9417 L150.5301,65.8087 L143.5691,65.8087 L132.6771,45.2517 Z M108.3521,29.1997 C106.3871,29.1997 104.9951,30.3057 104.1751,32.5167 C103.3571,34.7277 102.8371,37.6907 102.6201,41.4027 L113.1851,41.4027 C113.1851,39.6557 113.1031,38.0317 112.9391,36.5297 C112.7751,35.0277 112.5151,33.7327 112.1611,32.6397 C111.8051,31.5477 111.3141,30.7017 110.6871,30.1007 C110.0591,29.5007 109.2811,29.1997 108.3521,29.1997 Z M119.8181,63.0237 C118.5081,64.0617 117.0051,64.8807 115.3141,65.4807 C113.6211,66.0807 111.7371,66.3817 109.6631,66.3817 C105.4041,66.3817 102.0461,64.7307 99.5901,61.4267 C97.1321,58.1237 95.9041,53.2777 95.9041,46.8897 C95.9041,43.5607 96.1361,40.5017 96.6001,37.7167 C97.0631,34.9327 97.8001,32.5167 98.8111,30.4687 C99.8211,28.4217 101.1181,26.8247 102.7021,25.6777 C104.2851,24.5307 106.1681,23.9577 108.3521,23.9577 C110.0441,23.9577 111.6001,24.2997 113.0211,24.9827 C114.4401,25.6647 115.6421,26.7707 116.6241,28.2987 C117.6071,29.8277 118.3711,31.8077 118.9171,34.2357 C119.4631,36.6667 119.7361,39.6287 119.7361,43.1217 L119.7361,46.6447 L102.5381,46.6447 C102.5381,51.3407 103.1791,54.8897 104.4621,57.2907 C105.7451,59.6947 107.6691,60.8947 110.2361,60.8947 C112.0381,60.8947 113.6351,60.5807 115.0281,59.9527 C116.4191,59.3247 117.5251,58.7117 118.3441,58.1107 L119.8181,63.0237 Z M82.4731,29.7737 L75.3481,29.7737 L75.3481,30.5077 C75.3481,32.6867 75.3061,35.0697 75.2251,37.6557 C75.1431,40.2427 74.9651,42.8707 74.6921,45.5377 C74.4181,48.2067 74.0371,50.8337 73.5451,53.4197 C73.0541,56.0077 72.3711,58.3897 71.4981,60.5667 L82.4731,60.5667 L82.4731,29.7737 Z M92.0551,73.9167 L86.3221,73.9167 L86.3221,65.8087 L68.6311,65.8087 L68.6311,73.9167 L62.8991,73.9167 L62.8991,60.5667 L65.4371,60.5667 C66.3651,58.3837 67.1021,55.9677 67.6491,53.3187 C68.1941,50.6707 68.6181,47.9427 68.9181,45.1287 C69.2181,42.3177 69.4091,39.4507 69.4921,36.5297 C69.5741,33.6097 69.6151,30.7837 69.6151,28.0527 L69.6151,24.5307 L88.7791,24.5307 L88.7791,60.5667 L92.0551,60.5667 L92.0551,73.9167 Z M59.2131,24.5307 L59.2131,65.8087 L52.9071,65.8087 L52.9071,47.2997 L43.4071,47.2997 L43.4071,65.8087 L37.0191,65.8087 L37.0191,24.5307 L43.4071,24.5307 L43.4071,42.0577 L52.9071,42.0577 L52.9071,24.5307 L59.2131,24.5307 Z" id="Fill-1" fill="#000000" fill-rule="nonzero"></path>
            <polygon id="Fill-3" fill="#000000" fill-rule="nonzero" points="277.2666 7.2508 298.7246 7.2508 298.7246 10.5268 281.3626 10.5268 281.3626 34.1138 296.2676 34.1138 296.2676 37.3898 281.3626 37.3898 281.3626 62.5318 298.9696 62.5318 298.9696 65.8088 277.2666 65.8088"></polygon>
            <path d="M312.4824,48.7401 C312.0994,52.1481 311.6224,54.9871 311.0484,57.2591 C310.4754,59.5311 309.6424,61.2891 308.5504,62.5321 L324.2754,62.5321 L324.2754,27.8071 L313.7934,27.8071 C313.7374,30.0251 313.6564,32.3231 313.5464,34.7041 C313.4364,36.7591 313.3004,39.0171 313.1374,41.4781 C312.9734,43.9401 312.7534,46.3601 312.4824,48.7401 Z M328.4524,65.8081 L306.0124,65.8081 L305.5204,73.9171 L302.4904,73.9171 L302.4904,62.5321 L304.2104,62.5321 C305.4654,61.8261 306.4894,60.1691 307.2814,57.5581 C308.0724,54.9491 308.6864,51.6871 309.1244,47.7721 C309.3964,45.2191 309.6014,42.5811 309.7384,39.8631 C309.8744,37.1451 309.9974,34.6431 310.1064,32.3611 C310.2154,29.6961 310.2974,27.0871 310.3524,24.5311 L328.2074,24.5311 L328.2074,62.5321 L331.9744,62.5321 L331.9744,73.9171 L328.9444,73.9171 L328.4524,65.8081 Z" id="Fill-5" fill="#000000" fill-rule="nonzero"></path>
            <path d="M346.3066,63.3514 C348.2166,63.3514 349.8396,62.5674 351.1786,60.9974 C352.5166,59.4264 353.5666,57.5314 354.3316,55.3114 L354.3316,44.0234 L349.9096,44.0234 C346.4696,44.0234 343.9306,44.8354 342.2926,46.4594 C340.6546,48.0844 339.8356,50.6834 339.8356,54.2554 C339.8356,57.1794 340.4216,59.4264 341.5966,60.9974 C342.7706,62.5674 344.3396,63.3514 346.3066,63.3514 Z M355.4786,65.8084 C355.3146,65.2634 355.1366,64.5674 354.9466,63.7204 C354.7536,62.8734 354.6046,61.7134 354.4946,60.2394 C353.5126,62.2054 352.2856,63.7614 350.8096,64.9074 C349.3356,66.0534 347.5606,66.6274 345.4866,66.6274 C342.7026,66.6274 340.4356,65.5774 338.6896,63.4744 C336.9416,61.3724 336.0686,58.4374 336.0686,54.6694 C336.0686,50.2474 337.2426,46.9044 339.5896,44.6374 C341.9376,42.3724 345.3496,41.2394 349.8276,41.2394 L354.3316,41.2394 L354.3316,36.0494 C354.3316,32.8644 353.7586,30.5594 352.6126,29.1304 C351.4656,27.7024 349.7446,26.9884 347.4526,26.9884 C345.7046,26.9884 344.0666,27.3914 342.5386,28.1984 C341.0096,29.0034 339.7536,30.1294 338.7716,31.5744 L337.7066,27.8894 C338.5256,26.7974 339.7666,25.8294 341.4326,24.9824 C343.0976,24.1364 345.1046,23.7124 347.4526,23.7124 C350.8916,23.7124 353.5266,24.6824 355.3556,26.6194 C357.1846,28.5584 358.0996,31.5744 358.0996,35.6694 L358.0996,58.1914 C358.0996,59.6124 358.1816,61.0454 358.3446,62.4914 C358.5086,63.9384 358.7256,65.0444 358.9996,65.8084 L355.4786,65.8084 Z" id="Fill-7" fill="#000000" fill-rule="nonzero"></path>
            <g id="Group-11" transform="translate(189.000000, 0.644200)">
                <g id="Fill-9-Clipped">
                    <mask id="mask-2" fill="white">
                        <use xlink:href="#path-1"></use>
                    </mask>
                    <g id="path-1"></g>
                    <path d="M44.9229,32.2609 C44.8809,32.1229 44.8309,31.9889 44.7749,31.8579 C44.6189,31.4539 44.4179,30.9969 44.1879,30.6279 C43.7969,30.0009 43.2379,29.3529 42.6929,28.8949 C42.0919,28.3909 41.3489,27.9369 40.6549,27.6489 C39.8989,27.3349 39.0159,27.1119 38.2329,27.0369 C37.3779,26.9559 36.4269,27.0009 35.6189,27.1609 C34.7249,27.3389 33.8069,27.6609 33.0339,28.0669 C32.1909,28.5109 31.3629,29.1049 30.7049,29.7399 C29.9879,30.4319 29.3299,31.2689 28.8529,32.0989 C28.3339,32.9999 27.9149,34.0299 27.6739,35.0009 C27.4079,36.0689 27.2859,37.1919 27.3199,38.2499 C27.3589,39.3949 27.5549,40.5549 27.8889,41.6079 C28.2489,42.7429 28.7729,43.8499 29.4029,44.8099 C30.0829,45.8459 30.9179,46.8079 31.8169,47.5919 C32.7829,48.4369 33.8869,49.1659 35.0059,49.7019 C36.2069,50.2759 37.5109,50.6979 38.7769,50.9239 C40.1349,51.1639 41.5539,51.2259 42.8799,51.1019 C44.2989,50.9679 45.7309,50.6389 47.0209,50.1489 C48.3969,49.6269 49.7339,48.9059 50.8859,48.0639 C52.1119,47.1669 53.2449,46.0829 54.1629,44.9289 C55.1389,43.7029 55.9699,42.3159 56.5689,40.9169 C57.2039,39.4329 57.6519,37.8269 57.8669,36.2739 C58.0989,34.6039 58.1089,32.9329 57.8969,31.3079 C57.6739,29.5889 57.2309,27.9279 56.5799,26.3699 C55.8939,24.7259 55.0049,23.1979 53.9389,21.8279 C52.8129,20.3829 51.5189,19.1079 50.0929,18.0389 C48.5899,16.9119 46.9639,15.9969 45.2599,15.3209 C43.4679,14.6089 41.6109,14.1409 39.7429,13.9299 C37.7789,13.7089 35.8169,13.7439 33.9109,14.0369 C31.9089,14.3439 29.9789,14.9069 28.1699,15.7089 C26.2759,16.5489 24.5169,17.6219 22.9439,18.8999 C21.2959,20.2389 19.8459,21.7709 18.6339,23.4539 C17.3649,25.2159 16.3429,27.1159 15.5959,29.1039 C14.8149,31.1809 14.3139,33.3309 14.1069,35.4929 C13.8909,37.7519 13.9699,40.0059 14.3429,42.1949 C14.7319,44.4789 15.4119,46.6809 16.3629,48.7409 C17.3559,50.8889 18.6129,52.8789 20.1009,54.6569 C21.6519,56.5089 23.4199,58.1359 25.3599,59.4909 C27.3779,60.9029 29.5539,62.0339 31.8259,62.8549 C34.1889,63.7069 36.6319,64.2429 39.0879,64.4479 C41.6419,64.6589 44.1899,64.5369 46.6599,64.0849 C49.2279,63.6149 51.7009,62.8199 54.0149,61.7179 C56.4159,60.5739 58.6389,59.1349 60.6209,57.4379 C62.6789,55.6779 64.4829,53.6719 65.9849,51.4759 C67.5389,49.1999 68.7809,46.7499 69.6749,44.1939 C70.6009,41.5449 71.1719,38.8079 71.3729,36.0579 C71.5819,33.2119 71.4179,30.3709 70.8879,27.6159 C70.3399,24.7659 69.4279,22.0189 68.1769,19.4509 C66.8839,16.7969 65.2619,14.3409 63.3559,12.1519 C61.3849,9.8879 59.1429,7.9059 56.6909,6.2599 C54.1589,4.5599 51.4349,3.2069 48.5939,2.2389 C45.6589,1.2399 42.6289,0.6319 39.5849,0.4329 C36.4439,0.2279 33.3109,0.4319 30.2719,1.0399 C27.1359,1.6669 24.1159,2.6949 21.2979,4.0939 C18.3909,5.5349 15.7009,7.3399 13.3039,9.4559 C10.8339,11.6359 8.6729,14.1149 6.8809,16.8219 C5.0359,19.6099 3.5709,22.6089 2.5289,25.7339 C1.4559,28.9509 0.8119,32.2759 0.6129,35.6149 C0.4099,39.0499 0.6549,42.4769 1.3409,45.7999 C2.0469,49.2179 3.1889,52.5099 4.7349,55.5839 C6.3269,58.7459 8.3129,61.6689 10.6379,64.2729 C13.0279,66.9489 15.7409,69.2889 18.7039,71.2269 C21.7479,73.2179 25.0219,74.7939 28.4309,75.9109 C31.9339,77.0589 35.5519,77.7399 39.1849,77.9379 C39.9589,77.9789 40.7329,77.9999 41.5049,77.9999 C44.4529,77.9999 47.3839,77.6959 50.2409,77.0909 C53.9439,76.3079 57.5089,75.0499 60.8379,73.3549 C64.2529,71.6149 67.4099,69.4489 70.2219,66.9139 L65.7159,61.9159 C63.3429,64.0559 60.6739,65.8869 57.7829,67.3589 C54.9809,68.7859 51.9739,69.8459 48.8479,70.5069 C45.8189,71.1489 42.6899,71.3879 39.5479,71.2179 C36.5039,71.0529 33.4689,70.4809 30.5269,69.5169 C27.6769,68.5829 24.9389,67.2639 22.3879,65.5949 C19.9189,63.9809 17.6539,62.0279 15.6569,59.7909 C13.7249,57.6269 12.0719,55.1949 10.7469,52.5599 C9.4649,50.0119 8.5179,47.2809 7.9309,44.4399 C7.3639,41.6949 7.1619,38.8589 7.3309,36.0119 C7.4939,33.2629 8.0269,30.5209 8.9129,27.8629 C9.7689,25.2969 10.9729,22.8319 12.4929,20.5349 C13.9589,18.3209 15.7299,16.2899 17.7569,14.4999 C19.7119,12.7749 21.9089,11.3019 24.2879,10.1219 C26.5779,8.9859 29.0359,8.1499 31.5919,7.6379 C34.0529,7.1459 36.5929,6.9799 39.1469,7.1479 C41.6009,7.3079 44.0489,7.7999 46.4229,8.6089 C48.7059,9.3859 50.8989,10.4759 52.9399,11.8469 C54.9009,13.1629 56.6969,14.7529 58.2799,16.5709 C59.7989,18.3149 61.0929,20.2759 62.1269,22.3979 C63.1189,24.4339 63.8439,26.6179 64.2799,28.8869 C64.6989,31.0629 64.8269,33.3099 64.6619,35.5669 C64.5039,37.7269 64.0539,39.8819 63.3229,41.9729 C62.6239,43.9709 61.6509,45.8909 60.4289,47.6779 C59.2619,49.3859 57.8549,50.9489 56.2469,52.3239 C54.7129,53.6379 52.9879,54.7529 51.1219,55.6419 C49.3439,56.4899 47.4349,57.1029 45.4489,57.4659 C43.5609,57.8109 41.6069,57.9039 39.6449,57.7409 C37.7779,57.5859 35.9159,57.1769 34.1109,56.5259 C32.3959,55.9069 30.7489,55.0489 29.2149,53.9769 C27.7619,52.9599 26.4319,51.7369 25.2619,50.3379 C24.1539,49.0159 23.2159,47.5289 22.4729,45.9189 C21.7699,44.3969 21.2659,42.7639 20.9769,41.0649 C20.7029,39.4609 20.6459,37.8019 20.8049,36.1339 C20.9549,34.5629 21.3219,32.9939 21.8939,31.4719 C22.4329,30.0409 23.1729,28.6659 24.0949,27.3859 C24.9589,26.1849 25.9989,25.0869 27.1859,24.1239 C28.2979,23.2209 29.5469,22.4589 30.8979,21.8599 C32.1619,21.2999 33.5199,20.9059 34.9329,20.6879 C36.2499,20.4859 37.6139,20.4619 38.9879,20.6169 C40.2459,20.7589 41.5569,21.0909 42.7769,21.5749 C43.9099,22.0249 45.0439,22.6639 46.0559,23.4229 C46.9909,24.1239 47.8809,25.0019 48.6289,25.9619 C49.3189,26.8479 49.9209,27.8859 50.3709,28.9639 C50.7839,29.9539 51.0789,31.0649 51.2239,32.1759 C51.3569,33.1929 51.3489,34.2909 51.2009,35.3519 C51.0689,36.3199 50.7839,37.3289 50.3819,38.2699 C50.0169,39.1239 49.5019,39.9779 48.8969,40.7409 C48.3479,41.4309 47.6629,42.0839 46.9149,42.6309 C46.2419,43.1219 45.4529,43.5459 44.6329,43.8579 C43.8999,44.1359 43.0749,44.3239 42.2489,44.4019 C41.5179,44.4709 40.7239,44.4349 39.9549,44.2979 C39.2879,44.1799 38.5609,43.9429 37.9099,43.6309 C37.3419,43.3599 36.7489,42.9649 36.2409,42.5219 C35.8019,42.1389 35.3709,41.6409 35.0279,41.1169 C34.7349,40.6699 34.4769,40.1199 34.3019,39.5709 C34.1559,39.1129 34.0639,38.5509 34.0459,38.0309 C34.0319,37.5969 34.0899,37.0849 34.2039,36.6259 C34.2959,36.2569 34.4759,35.8199 34.6849,35.4559 C34.8489,35.1719 35.1129,34.8369 35.3779,34.5819 C35.5769,34.3889 35.8859,34.1709 36.1649,34.0239 C36.3399,33.9319 36.6059,33.8389 36.8399,33.7829 C36.9939,35.9299 38.7799,37.6249 40.9659,37.6249 C43.2529,37.6249 45.1079,35.7709 45.1079,33.4839 C45.1079,33.0639 45.0429,32.6579 44.9269,32.2769 L44.9289,32.2759 C44.9269,32.2709 44.9249,32.2659 44.9229,32.2609" id="Fill-9" fill="url(#linearGradient-3)" mask="url(#mask-2)"></path>
                </g>
            </g>
            <path d="M22.522,12.4925 L19.165,12.4925 C17.908,12.4925 16.679,12.7245 15.479,13.1905 C14.277,13.6565 13.212,14.3955 12.285,15.4085 C11.356,16.4225 10.606,17.7645 10.032,19.4355 C9.459,21.1075 9.173,23.1735 9.173,25.6385 C9.173,27.9945 9.431,29.9665 9.951,31.5545 C10.469,33.1435 11.179,34.4305 12.08,35.4165 C12.981,36.4015 14.046,37.1005 15.274,37.5115 C16.502,37.9225 17.799,38.1265 19.165,38.1265 L22.522,38.1265 L22.522,12.4925 Z M17.281,43.3685 L7.289,65.8085 L0,65.8085 L10.974,41.8125 C8.407,40.5015 6.333,38.5765 4.75,36.0385 C3.166,33.4995 2.375,30.0465 2.375,25.6785 C2.375,22.6205 2.826,19.9325 3.726,17.6115 C4.627,15.2915 5.855,13.3665 7.412,11.8365 C8.968,10.3085 10.782,9.1625 12.858,8.3975 C14.933,7.6335 17.117,7.2505 19.41,7.2505 L28.828,7.2505 L28.828,65.8085 L22.522,65.8085 L22.522,43.3685 L17.281,43.3685 Z" id="Fill-12" fill="#000000" fill-rule="nonzero"></path>
        </g>
    </g>
</svg>